<svg xmlns="http://www.w3.org/2000/svg" xmlns:xlink="http://www.w3.org/1999/xlink" viewBox="0 0 226 272">
  <defs>
    <radialGradient id="a" cx="112.4" cy="98.55" r="125.03" gradientUnits="userSpaceOnUse">
      <stop offset="0.01" stop-color="#90c4b0"/>
      <stop offset="0.16" stop-color="#759c8d"/>
      <stop offset="0.35" stop-color="#577067"/>
      <stop offset="0.53" stop-color="#404e48"/>
      <stop offset="0.7" stop-color="#2f3533"/>
      <stop offset="0.85" stop-color="#252626"/>
      <stop offset="0.98" stop-color="#212121"/>
    </radialGradient>
  </defs>
  <title>plutus-logo-dark</title>
  <g>
    <path d="M130.64,0h-111C8.79,0,0,9.21,0,20.58V251.83C0,263,8.61,272,19.23,272H62.15c10.44,0,18.9-8.88,18.9-19.82V200h49.59C183.31,200,226,155.23,226,100S183.31,0,130.64,0Z" fill="url(#a)"/>
    <circle cx="114" cy="99" r="53" fill="#00a86b"/>
    <path d="M128.09,150.1S134,132,141,134s13-9.67,18.51-7.83c0,0,0,2.93-5.77,7.88a72,72,0,0,1-10.26,9l-7,4Z" fill="#b5c6bf" opacity="0.22"/>
    <path d="M66,121.77A32.3,32.3,0,0,0,76.85,100c1-14-12-23,2-29S78,60,78,60L68.71,71.22l-3.49,6.66-3,9.21L61,94.93v8.14l1.4,8.69,2,5.5Z" fill="#b5c6bf" opacity="0.22"/>
    <path d="M96,77s-7,2-4,6,8-1,8-1S103,76,96,77Z" fill="#b5c6bf" opacity="0.22"/>
    <path d="M104,59s3-6,13-4,0,10,0,10S103,75,104,59Z" fill="#b5c6bf" opacity="0.22"/>
    <path d="M149.88,60S140,67,141,77s-14,18-14,18-4,5-2,7,8-4,8-4,15-10,23-6,11,7,11,7l-.62-8.12-1-4.88-1.63-5.28-2.37-5.46-1.88-3.43-3.95-5.71Z" fill="#b5c6bf" opacity="0.22"/>
    <path d="M79.85,139.53S86,129,95,126s13,0,13,0,5,10-1,16c0,0-8,11,7,6s4.74,3.79,4.74,3.79l-10.85-.14-8-1.55-8.65-3.22-7.17-4.31Z" fill="#b5c6bf" opacity="0.22"/>
    <path d="M131,109s-3-3,1-5,4,3,4,3S134,111,131,109Z" fill="#b5c6bf" opacity="0.22"/>
    <path d="M113,104s-5-3-1-6,5,1,5,1S118,104,113,104Z" fill="#b5c6bf" opacity="0.22"/>
  </g>
</svg>
